<svg xmlns="http://www.w3.org/2000/svg" viewBox="0 0 260.34 242.86"><defs><style>.cls-1{fill:#d7007e;}.cls-2{fill:#ee748a;}.cls-3{fill:#c273ad;}.cls-4{fill:#8a2753;}.cls-5{fill:#a3195b;}.cls-6{fill:#aa4895;}.cls-7{fill:#8a1e82;}.cls-8{fill:#ea4c78;}.cls-9{fill:#be097f;}.cls-10{fill:#991a81;}.cls-11{fill:#e71d73;}.cls-12{fill:#1d1d1b;}</style></defs><title>Asset 1</title><g id="Layer_2" data-name="Layer 2"><g id="objects"><path class="cls-1" d="M127.61,113.46c-.2-3.78.6-7.88.92-11.66.37-4.27.7-8.53,1.27-12.78a184,184,0,0,1,4.72-23.47c2-7.42,4.38-14.77,6.79-22.06,2.56-7.76,5.64-15.35,8.14-23.12,1.42-4.45-6.23-6.31-7-1.76-.27,1.64-.16,3.25-.31,4.89-.19,2,2.73,2.95,4,1.55.86-1,1.61-2.05,2.41-3.08l-5.74-4.23a239.47,239.47,0,0,0-13.08,46.61,227.07,227.07,0,0,0-3,23.4c-.28,4.06-.4,8.12-.4,12.19,0,4.57,1.07,9,1.2,13.52a0,0,0,0,0,0,0Z"/><path class="cls-2" d="M126.9,129.13c0,3.78.94,7.84,1.43,11.6.56,4.25,1.07,8.49,1.83,12.71a183.82,183.82,0,0,0,5.75,23.24c2.33,7.33,5,14.56,7.75,21.75,2.9,7.63,6.31,15.08,9.14,22.74,1.63,4.38-5.93,6.58-6.88,2.06-.34-1.63-.3-3.24-.52-4.87-.28-2,2.59-3.07,3.9-1.72.91.93,1.71,2,2.55,3l-5.55,4.48a239.18,239.18,0,0,1-15.11-46,225.88,225.88,0,0,1-4-23.25c-.46-4-.76-8.1-.94-12.17-.2-4.56.67-9,.61-13.55a0,0,0,0,1,.05,0Z"/><path class="cls-2" d="M132.47,116.87c10.21-8.45,21.72-17.34,35.81-22.33a137.55,137.55,0,0,1,21.39-5.72q5.58-1,11.27-1.54c4.33-.4,8.79-.26,13.08-.74-.33-1.59-.66-3.18-1-4.76a17.85,17.85,0,0,0-4.92,1.42c-2.34,1.28-.84,3.74,2,3.31a9.22,9.22,0,0,1,3,0c4.68.77,5.71-4.48.78-4.8-4.24-.27-8.88.39-13.07.89s-8.18,1.11-12.17,2a93.22,93.22,0,0,0-21.79,7.39c-13.68,6.81-25.16,14.92-34.52,24.88,0,0,.06.1.11.06Z"/><path class="cls-3" d="M165.9,123.78c12.28,5,25.57,10.87,36.66,20.9a136.79,136.79,0,0,1,15.19,16.1q3.54,4.42,6.72,9.19c2.41,3.61,4.4,7.6,6.86,11.15l3.72-3.14a17.82,17.82,0,0,0-3.6-3.65c-2.23-1.46-3.69,1-1.94,3.34A9.56,9.56,0,0,1,231,180.3c1.55,4.49,6.65,2.89,4.59-1.59-1.77-3.86-4.56-7.63-7-11.08s-4.86-6.67-7.52-9.77a93.61,93.61,0,0,0-16.86-15.66c-12.49-8.79-25.08-15-38.29-18.55-.07,0-.07.1,0,.13Z"/><path class="cls-4" d="M120.24,139.07c-3.42,12.81-6.68,27-5.33,41.87a136.62,136.62,0,0,0,3.73,21.82q1.42,5.49,3.31,10.88c1.44,4.11,3.43,8.09,4.78,12.2L122,226.92a17.67,17.67,0,0,1-.76-5.07c.18-2.66,3-2.32,3.85.46a9.12,9.12,0,0,0,1.22,2.74c2.65,3.94-1.69,7.06-4,2.72-2-3.74-3.36-8.23-4.65-12.25s-2.41-7.89-3.29-11.88A93.17,93.17,0,0,1,112,180.75c.48-15.27,3-29.09,8.19-41.75,0-.06.11,0,.1.07Z"/><path class="cls-4" d="M153.2,93.85c5.84-4.2,11.42-8.62,17.6-12.52a114.54,114.54,0,0,1,20.06-9.82,117.75,117.75,0,0,1,21.77-6.17,141.06,141.06,0,0,1,24.47-1.79c4.82,0,3.57-6.41-1.45-6-1.36.11-2.74.1-4.09.26-2.87.33-3.2,3.53-.45,4.44,1.29.42,2.64.69,3.95,1.08l1.62-5.79c-16.62-.69-33.54,3.31-47.52,9.6a122,122,0,0,0-19.92,11.64c-6.23,4.37-12,9.16-16.43,14.77-.15.19.16.46.39.29Z"/><path class="cls-2" d="M131.45,123.62c7.83,2.76,15.73,5.14,23.47,8.41a128.71,128.71,0,0,1,22.26,12.43,127,127,0,0,1,19.59,16.4c6.42,6.61,11.67,14,16.82,21.72,3,4.49,8.68-.78,5.18-5.21-1-1.19-1.79-2.49-2.77-3.65-2.11-2.48-5.54-.72-4.78,2.43.36,1.48.92,2.92,1.33,4.39l6.85-2.2c-9.49-16-23.91-29.24-38.85-38.27a137.24,137.24,0,0,0-24-11.14c-8.26-3-16.65-5.34-25.05-5.86-.27,0-.36.45-.05.55Z"/><path class="cls-5" d="M133.07,120.33c7.29-1.1,14.42-2.5,21.93-3.19a127.68,127.68,0,0,1,23.33.28A137.86,137.86,0,0,1,202,121.68,170.13,170.13,0,0,1,226.62,131c4.73,2.12,5.9-4,.82-5.92-1.37-.51-2.71-1.13-4.1-1.59-2.94-1-4.46,1.68-2.11,3.71,1.11,1,2.33,1.78,3.47,2.71q1.88-2.19,3.76-4.37a126.56,126.56,0,0,0-50.16-12.71,130.46,130.46,0,0,0-23.87,1.38c-7.75,1.07-15.21,2.72-21.63,5.69-.22.1,0,.47.27.43Z"/><path class="cls-6" d="M129.35,126.21c4.75,5.64,9.68,11,14.2,17a127.93,127.93,0,0,1,12,20,137.82,137.82,0,0,1,8.74,22.38,170.87,170.87,0,0,1,4.95,25.87c.66,5.15,6.53,2.91,5.47-2.39-.29-1.44-.46-2.91-.79-4.33-.7-3-3.77-2.92-4.26.15-.23,1.44-.31,2.91-.5,4.37l5.69.91a126.73,126.73,0,0,0-15.4-49.39,131.92,131.92,0,0,0-13.66-19.63c-5-6-10.28-11.54-16.17-15.46-.2-.13-.41.24-.23.46Z"/><path class="cls-2" d="M158.33,35.38a34.21,34.21,0,0,1,3-3.55c1.13-1.3,2.24-2.6,3.43-3.84a73.59,73.59,0,0,1,7.08-6.47c2.4-1.93,4.9-3.74,7.4-5.53,2.66-1.91,5.46-3.64,8.1-5.56,1.51-1.1-.52-3.51-1.84-2.21-.47.46-.82,1-1.26,1.51s.19,1.59.93,1.43c.51-.11,1-.27,1.5-.42-.28-.91-.57-1.82-.85-2.72a95.47,95.47,0,0,0-15.25,12,89.49,89.49,0,0,0-6.49,6.86c-1,1.25-2,2.54-3,3.85-1.08,1.48-1.79,3.17-2.81,4.66,0,0,0,0,0,0Z"/><path class="cls-5" d="M138.51,81.51A160.51,160.51,0,0,1,160.31,49a91.49,91.49,0,0,1,13.89-13,77.33,77.33,0,0,1,7.74-5.06c3-1.76,6.25-3,9.28-4.65,4.06-2.22.33-7.84-3.69-6-3,1.38-6,3.66-8.73,5.53s-5.32,4-7.87,6.13a100.89,100.89,0,0,0-13.75,14c-8.64,10.63-14.21,22.72-19.12,35.4-.1.26.33.42.45.17Z"/><path class="cls-1" d="M146.31,133.51a160.61,160.61,0,0,1,26.39,29,91.34,91.34,0,0,1,9.3,16.6,79.18,79.18,0,0,1,3.06,8.73c1,3.35,1.41,6.78,2.29,10.12,1.18,4.48,7.53,2.2,6.71-2.14-.62-3.25-2.12-6.68-3.28-9.81s-2.62-6.11-4.06-9.1a101.65,101.65,0,0,0-10.35-16.72c-8.25-10.94-18.65-19.24-29.79-27-.22-.16-.48.21-.27.39Z"/><path class="cls-4" d="M170.33,120.54a160.31,160.31,0,0,1,36.61,14,91.43,91.43,0,0,1,15.77,10.64,79.27,79.27,0,0,1,6.66,6.43c2.38,2.55,4.31,5.42,6.6,8,3.07,3.47,7.71-1.42,5-4.92-2-2.63-4.89-5-7.33-7.29s-5.09-4.29-7.73-6.3a101,101,0,0,0-16.76-10.29c-12.28-6-25.31-8.79-38.76-10.75-.28,0-.34.41-.08.47Z"/><path class="cls-7" d="M131.69,113.47A207.92,207.92,0,0,1,159.9,71.33a117.77,117.77,0,0,1,18-16.82,99.08,99.08,0,0,1,10-6.55c3.9-2.27,8.07-3.88,12-6,5.26-2.87.43-10.14-4.76-7.76-3.9,1.79-7.74,4.73-11.31,7.15s-6.87,5.19-10.17,7.94a130.72,130.72,0,0,0-17.8,18.18c-11.18,13.75-18.38,29.39-24.73,45.79-.13.34.42.54.58.23Z"/><path class="cls-8" d="M140.49,156.83a176,176,0,0,1,15.7,40,100.25,100.25,0,0,1,3,20.66,86,86,0,0,1-.29,10.15c-.31,3.82-1.2,7.5-1.61,11.27-.55,5,6.85,5.2,7.71.43.64-3.57.45-7.68.49-11.33s-.29-7.3-.6-10.93a111.79,111.79,0,0,0-4.06-21.2c-4.16-14.44-11.57-27-19.93-39.39-.17-.25-.58,0-.44.29Z"/><path class="cls-2" d="M239.37,144.19c8,4.28,12.68,12.05,17.07,19.59a2.11,2.11,0,0,0,1.84,1,2,2,0,0,0,1.79-1.08,2.11,2.11,0,0,0,0-2.13,44.79,44.79,0,0,0-20.35-17.93c-.37-.17-.68.36-.31.55Z"/><path class="cls-1" d="M186.22,61c7-5.69,16-7,24.67-8.17a2.07,2.07,0,0,0,1.63-1.31,2,2,0,0,0-.3-2.07,2.1,2.1,0,0,0-2-.78,44.75,44.75,0,0,0-24.41,11.83c-.29.27.07.76.39.5Z"/><path class="cls-3" d="M156.35,30.6c.92-2.89,3-5.77,4.58-8.36a31.88,31.88,0,0,1,6.94-7.93c2.22-1.84-.14-5.69-2.47-3.84a27.66,27.66,0,0,0-6.8,8.6c-2,3.72-2.53,7.22-3.16,11.32a.47.47,0,0,0,.91.21Z"/><path class="cls-9" d="M168.91,147.49c2.44,1.81,4.5,4.69,6.44,7a32.05,32.05,0,0,1,5.28,9.13c1,2.69,5.42,1.7,4.43-1.1a27.76,27.76,0,0,0-6-9.21c-2.86-3.14-6-4.72-9.7-6.64a.47.47,0,0,0-.49.8Z"/><path class="cls-10" d="M210.77,74.36a11.67,11.67,0,0,1,9.57.43,10.92,10.92,0,0,1,3.09,2.27c.87.88,1.42,2.31,2.57,2.82a1.9,1.9,0,0,0,2.82-1.59c.26-3.47-5.32-5.34-7.89-6a13.07,13.07,0,0,0-10.45,1.58.29.29,0,0,0,.29.51Z"/><path class="cls-1" d="M169.07,107.82a117.77,117.77,0,0,1,42.1-1.2c13.55,2.18,27.47,7.5,37.25,17.44,3.56,3.62,8.45-2,4.57-5.3-11.19-9.6-25.66-14.21-40.08-16.12A103.91,103.91,0,0,0,168.66,106a1,1,0,0,0,.41,1.85Z"/><path class="cls-2" d="M121.54,117.11c-10.58-8-22.46-16.37-36.76-20.73a135.6,135.6,0,0,0-21.62-4.77q-5.61-.77-11.33-1c-4.34-.21-8.78.13-13.09-.17l.78-4.8a17.9,17.9,0,0,1,5,1.21c2.4,1.18,1,3.7-1.87,3.39a9.15,9.15,0,0,0-3,.1c-4.65,1-5.91-4.23-1-4.76,4.22-.46,8.89,0,13.1.31S60,86.59,64,87.28a93.58,93.58,0,0,1,22.1,6.43c14,6.2,25.79,13.79,35.58,23.33,0,0-.06.11-.11.07Z"/><path class="cls-1" d="M88.45,125.48C76.39,131,63.38,137.47,52.74,148a137.72,137.72,0,0,0-14.47,16.76c-2.22,3.05-4.33,6.21-6.3,9.47-2.25,3.72-4.06,7.79-6.37,11.44l-3.85-3a17.71,17.71,0,0,1,3.43-3.81c2.17-1.55,3.73.88,2.09,3.26a9.54,9.54,0,0,0-1.34,2.69c-1.35,4.55-6.53,3.19-4.66-1.38,1.6-3.94,4.22-7.82,6.49-11.38s4.57-6.88,7.09-10.09A93.63,93.63,0,0,1,51,145.57c12.1-9.33,24.4-16.14,37.44-20.21.07,0,.07.09,0,.12Z"/><path class="cls-7" d="M99.82,95c-6-3.94-11.79-8.11-18.13-11.74a115.92,115.92,0,0,0-20.47-8.93,118.71,118.71,0,0,0-22-5.21,142,142,0,0,0-24.52-.71c-4.82.18-3.85-6.24,1.18-6,1.37.06,2.74,0,4.1.08,2.89.21,3.35,3.39.64,4.42-1.27.48-2.6.81-3.89,1.25-.63-1.9-1.25-3.8-1.88-5.71,16.58-1.42,33.66,1.83,47.9,7.5A122,122,0,0,1,83.13,80.68c6.42,4.1,12.41,8.63,17.06,14,.16.18-.14.46-.37.31Z"/><path class="cls-5" d="M122.86,123.81c-7.71,3.1-15.5,5.83-23.09,9.43a128.51,128.51,0,0,0-21.68,13.4,127.64,127.64,0,0,0-18.86,17.24c-6.12,6.89-11,14.47-15.84,22.45-2.78,4.61-8.7-.4-5.4-5,.89-1.24,1.67-2.57,2.6-3.77,2-2.57,5.51-1,4.88,2.22-.29,1.49-.78,2.95-1.13,4.44l-6.94-1.9C46.17,166,60,152.08,74.53,142.4A137.23,137.23,0,0,1,98,130.22c8.11-3.38,16.4-6.07,24.76-7,.28,0,.38.42.08.54Z"/><path class="cls-3" d="M123.64,103.66c-1.52-8.16-2.66-16.33-4.7-24.48a127.66,127.66,0,0,0-8.88-23.9A127.4,127.4,0,0,0,96.86,33.4c-5.55-7.35-12-13.66-18.89-19.94C74,9.82,80.08,5,83.91,9.14c1,1.12,2.19,2.14,3.19,3.29C89.22,14.89,87,18,84,16.78c-1.41-.58-2.74-1.35-4.13-2l3.23-6.44c14.35,11.83,25.22,28.11,31.86,44.26a137.77,137.77,0,0,1,7.33,25.43c1.71,8.62,2.72,17.27,1.94,25.64,0,.28-.49.29-.55,0Z"/><path class="cls-5" d="M121.09,120.6c-7.33-.78-14.51-1.87-22-2.23a127.85,127.85,0,0,0-23.3,1.31A136.71,136.71,0,0,0,52.31,125,170.11,170.11,0,0,0,28.1,135.36c-4.63,2.33-6.07-3.78-1.08-5.87,1.35-.57,2.67-1.25,4-1.77,2.9-1.12,4.53,1.48,2.27,3.61-1.07,1-2.25,1.89-3.35,2.86L26,130a126.75,126.75,0,0,1,49.55-14.9,131,131,0,0,1,23.91.33c7.78.73,15.31,2,21.86,4.73.21.09,0,.48-.26.45Z"/><path class="cls-7" d="M125.06,126.31c-4.5,5.84-9.18,11.39-13.43,17.63a127.93,127.93,0,0,0-11.07,20.54,137.58,137.58,0,0,0-7.74,22.74A169.53,169.53,0,0,0,89,213.29c-.44,5.16-6.4,3.19-5.57-2.15.22-1.45.33-2.93.59-4.36.57-3.05,3.64-3.09,4.27,0,.29,1.42.43,2.9.69,4.34l-5.64,1.16a126.59,126.59,0,0,1,13.21-50A131.27,131.27,0,0,1,109.35,142c4.7-6.25,9.75-12,15.47-16.15.19-.14.42.22.24.45Z"/><path class="cls-4" d="M114,82.06A160,160,0,0,0,90.73,50.48,90.78,90.78,0,0,0,76.29,38.09a78.5,78.5,0,0,0-8-4.71c-3.09-1.62-6.36-2.72-9.46-4.24-4.16-2-.68-7.82,3.41-6.15,3.07,1.24,6.14,3.39,9,5.13s5.49,3.78,8.13,5.78A102,102,0,0,1,93.74,47.34c9.1,10.23,15.19,22.07,20.65,34.52.11.25-.31.43-.44.2Z"/><path class="cls-1" d="M102,113.68a160.55,160.55,0,0,0-38.95-4.37,91.69,91.69,0,0,0-18.89,2.21,77.78,77.78,0,0,0-8.86,2.65C32,115.34,29,117,25.78,118.25c-4.32,1.67-6.2-4.81-2.2-6.68,3-1.41,6.65-2.21,9.86-3.11s6.49-1.47,9.75-2A101.5,101.5,0,0,1,62.81,105c13.69.26,26.52,3.81,39.37,8.25.26.09.11.51-.16.45Z"/><path class="cls-6" d="M115.37,130.45a160.5,160.5,0,0,0-25.09,30.11,91.08,91.08,0,0,0-8.56,17,78.49,78.49,0,0,0-2.67,8.86c-.83,3.39-1.12,6.83-1.85,10.21-1,4.52-7.42,2.52-6.79-1.85.47-3.27,1.82-6.77,2.84-9.94s2.35-6.23,3.66-9.27a101.22,101.22,0,0,1,9.6-17.16c7.76-11.29,17.79-20,28.57-28.33.22-.16.49.2.29.38Z"/><path class="cls-1" d="M83.87,122.44a160.28,160.28,0,0,0-35.95,15.61,91,91,0,0,0-15.29,11.33,76.08,76.08,0,0,0-6.36,6.71c-2.28,2.65-4.08,5.6-6.25,8.28-2.91,3.6-7.76-1.08-5.23-4.7,1.89-2.71,4.66-5.23,7-7.6s4.9-4.51,7.44-6.64a102,102,0,0,1,16.3-11c12-6.59,24.89-9.9,38.25-12.45.27,0,.35.4.09.47Z"/><path class="cls-3" d="M122.17,113.68a207.75,207.75,0,0,0-30-40.86,118,118,0,0,0-18.69-16,101.24,101.24,0,0,0-10.29-6.1c-4-2.09-8.24-3.52-12.25-5.48-5.38-2.64-.88-10.11,4.42-8,4,1.61,7.94,4.38,11.6,6.65s7.1,4.88,10.52,7.47A131.75,131.75,0,0,1,96,68.76c11.77,13.25,19.65,28.55,26.72,44.67.14.32-.4.56-.57.25Z"/><path class="cls-2" d="M104.48,193.25c-1.58,8.89,1.59,17.41,4.78,25.53a2.12,2.12,0,0,1-.35,2.07,2,2,0,0,1-2,.74,2.1,2.1,0,0,1-1.63-1.36,44.73,44.73,0,0,1-1.45-27.09c.1-.39.7-.31.62.11Z"/><path class="cls-1" d="M65.38,63.67c-7.26-5.37-16.3-6.32-25-7.07a2.1,2.1,0,0,1-1.69-1.23,2,2,0,0,1,.21-2.09,2.1,2.1,0,0,1,1.94-.86A44.8,44.8,0,0,1,65.76,63.16c.3.26,0,.76-.38.51Z"/><path class="cls-3" d="M86.48,149.31c-2.36,1.9-4.29,4.88-6.13,7.29A31.93,31.93,0,0,0,75.49,166c-.91,2.74-5.35,1.94-4.48-.9a27.79,27.79,0,0,1,5.55-9.47c2.72-3.26,5.8-5,9.39-7.05a.47.47,0,0,1,.53.78Z"/><path class="cls-11" d="M148.84,3.1A3.18,3.18,0,1,1,145.6,0,3.17,3.17,0,0,1,148.84,3.1Z"/><path class="cls-11" d="M34,42.67a1.19,1.19,0,0,1-2.38.06,1.18,1.18,0,0,1,1.16-1.22A1.19,1.19,0,0,1,34,42.67Z"/><path class="cls-11" d="M21.55,53.13a1.79,1.79,0,1,1-1.82-1.74A1.79,1.79,0,0,1,21.55,53.13Z"/><path class="cls-11" d="M123,5.26a1.79,1.79,0,1,1-1.82-1.74A1.79,1.79,0,0,1,123,5.26Z"/><path class="cls-11" d="M113.07,27.7A1.79,1.79,0,1,1,111.24,26,1.79,1.79,0,0,1,113.07,27.7Z"/><path class="cls-11" d="M223.33,36.39a1.79,1.79,0,1,1-1.83-1.75A1.79,1.79,0,0,1,223.33,36.39Z"/><path class="cls-11" d="M236,82.88a1.79,1.79,0,1,1-1.82-1.75A1.79,1.79,0,0,1,236,82.88Z"/><path class="cls-11" d="M239.58,126a1.78,1.78,0,1,1-1.82-1.74A1.78,1.78,0,0,1,239.58,126Z"/><path class="cls-11" d="M233.55,164.23a1.79,1.79,0,1,1-1.83-1.75A1.79,1.79,0,0,1,233.55,164.23Z"/><path class="cls-11" d="M191.29,167.8a1.79,1.79,0,1,1-1.82-1.74A1.78,1.78,0,0,1,191.29,167.8Z"/><path class="cls-11" d="M179.77,197.16a1.79,1.79,0,1,1-1.83-1.75A1.79,1.79,0,0,1,179.77,197.16Z"/><path class="cls-11" d="M146.59,184.54a1.79,1.79,0,1,1-1.83-1.75A1.79,1.79,0,0,1,146.59,184.54Z"/><path class="cls-11" d="M125.49,183.54a1.79,1.79,0,1,1-1.82-1.75A1.78,1.78,0,0,1,125.49,183.54Z"/><path class="cls-11" d="M97.45,208a1.79,1.79,0,1,1-1.82-1.75A1.78,1.78,0,0,1,97.45,208Z"/><path class="cls-11" d="M60.71,173.52a1.79,1.79,0,1,1-1.82-1.75A1.78,1.78,0,0,1,60.71,173.52Z"/><path class="cls-11" d="M28.93,123.75A1.79,1.79,0,1,1,27.1,122,1.79,1.79,0,0,1,28.93,123.75Z"/><path class="cls-11" d="M199.15,20a1.79,1.79,0,0,1-3.57.08,1.79,1.79,0,1,1,3.57-.08Z"/><path class="cls-11" d="M17.05,88a2,2,0,1,1-2.05-2A2,2,0,0,1,17.05,88Z"/><path class="cls-11" d="M30.76,98.31a1,1,0,0,1-2,0,1,1,0,0,1,1-1A1,1,0,0,1,30.76,98.31Z"/><path class="cls-11" d="M15.17,135.22a1,1,0,0,1-2,0,1,1,0,0,1,1-1A1,1,0,0,1,15.17,135.22Z"/><path class="cls-11" d="M62.88,184.91a1,1,0,0,1-1,1,1,1,0,0,1-1-1,1,1,0,0,1,2-.05Z"/><path class="cls-11" d="M135.76,12.33a1,1,0,1,1-1-1A1,1,0,0,1,135.76,12.33Z"/><path class="cls-11" d="M201.31,11.48a1,1,0,1,1-1-1A1,1,0,0,1,201.31,11.48Z"/><path class="cls-11" d="M222.39,50.7a1,1,0,0,1-1,1,1,1,0,0,1-1-1,1,1,0,0,1,1-1A1,1,0,0,1,222.39,50.7Z"/><path class="cls-11" d="M212.31,28.11a1,1,0,1,1-1-1A1,1,0,0,1,212.31,28.11Z"/><path class="cls-11" d="M243.51,96.8a1,1,0,1,1-1-1A1,1,0,0,1,243.51,96.8Z"/><path class="cls-11" d="M225.33,90.8a1,1,0,0,1-1,1,1,1,0,0,1-1-1,1,1,0,0,1,1-1A1,1,0,0,1,225.33,90.8Z"/><path class="cls-11" d="M244.9,135.93a1,1,0,0,1-1,1,1,1,0,1,1,1-1Z"/><path class="cls-11" d="M246.57,166.59a1,1,0,0,1-1,1,1,1,0,1,1,1-1Z"/><path class="cls-11" d="M201.75,176a1,1,0,0,1-1,1,1,1,0,0,1-1-1,1,1,0,0,1,1-1A1,1,0,0,1,201.75,176Z"/><path class="cls-11" d="M183.47,208.72a1,1,0,1,1-2,0,1,1,0,1,1,2,0Z"/><path class="cls-11" d="M150.42,195.16a1,1,0,0,1-1,1,1,1,0,0,1-1-1,1,1,0,0,1,1-1A1,1,0,0,1,150.42,195.16Z"/><path class="cls-11" d="M118.58,169.35a1,1,0,1,1-1-1A1,1,0,0,1,118.58,169.35Z"/><path class="cls-11" d="M113.55,227.19a1,1,0,1,1-1-1A1,1,0,0,1,113.55,227.19Z"/><path class="cls-11" d="M97.76,233.36a1,1,0,0,1-1,1,1,1,0,0,1-1-1,1,1,0,0,1,2,0Z"/><path class="cls-12" d="M66.34,80a1,1,0,1,1-1-1A1,1,0,0,1,66.34,80Z"/><path class="cls-11" d="M106.69,11.44a1,1,0,0,1-1,1,1,1,0,1,1,1-1Z"/><polygon class="cls-2" points="65.79 11.15 58.62 11.68 64.31 16.08 58.19 12.28 60.22 19.19 57.5 12.52 55.08 19.3 56.8 12.31 50.86 16.37 56.35 11.73 49.16 11.52 56.34 10.99 50.64 6.59 56.76 10.39 54.73 3.48 57.45 10.15 59.87 3.37 58.15 10.36 64.09 6.3 58.6 10.94 65.79 11.15"/><polygon class="cls-2" points="256.55 74.45 249.38 74.98 255.07 79.38 248.96 75.58 250.98 82.48 248.26 75.82 245.84 82.6 247.56 75.61 241.62 79.67 247.12 75.03 239.92 74.82 247.1 74.29 241.41 69.89 247.52 73.69 245.5 66.78 248.21 73.45 250.63 66.67 248.91 73.66 254.86 69.6 249.36 74.24 256.55 74.45"/><polygon class="cls-2" points="206.12 187.42 198.94 187.95 204.64 192.35 198.52 188.55 200.55 195.46 197.83 188.79 195.41 195.57 197.13 188.58 191.19 192.64 196.68 188 189.49 187.79 196.67 187.26 190.97 182.86 197.09 186.66 195.06 179.75 197.78 186.42 200.2 179.64 198.48 186.63 204.43 182.57 198.93 187.21 206.12 187.42"/><polygon class="cls-2" points="56.83 197.84 49.66 198.37 55.35 202.77 49.24 198.97 51.26 205.88 48.55 199.21 46.13 205.99 47.84 199 41.9 203.06 47.4 198.42 40.21 198.21 47.38 197.68 41.69 193.28 47.8 197.08 45.78 190.17 48.49 196.84 50.91 190.06 49.19 197.05 55.14 192.99 49.64 197.63 56.83 197.84"/><polygon class="cls-2" points="16.63 78.08 9.45 78.6 15.15 83 9.03 79.2 11.06 86.11 8.34 79.45 5.92 86.22 7.64 79.24 1.7 83.3 7.19 78.65 0 78.44 7.18 77.92 1.48 73.52 7.6 77.31 5.57 70.41 8.29 77.07 10.71 70.29 8.99 77.28 14.93 73.22 9.44 77.86 16.63 78.08"/></g></g></svg>