<svg xmlns="http://www.w3.org/2000/svg" viewBox="0 0 165.86 229.56"><defs><style>.cls-1{fill:#ea4c78;}.cls-2{fill:#951b81;}.cls-3{fill:#90c362;}.cls-4{fill:#52c3f1;}.cls-5{fill:#53b89a;}.cls-6{fill:#00afc8;}.cls-7{fill:#dedc00;}.cls-8{fill:#be097f;}.cls-9{fill:#3aaa35;}</style></defs><title>Asset 3</title><g id="Layer_2" data-name="Layer 2"><g id="objects"><path class="cls-1" d="M108.57,91c1.84-4.24,5.43-8.27,8.23-11.94a48.39,48.39,0,0,1,11.76-10.9c3.64-2.44.68-8.63-3.13-6.2-4.78,3-8.45,7.32-11.66,11.94-3.68,5.31-5,10.53-6.56,16.63a.72.72,0,0,0,1.36.47Z"/><path class="cls-2" d="M69.33,228.51c-12.59-38.08-5.52-79.76,7.81-116.65C88.84,79.51,115.63,53.32,141,30.59,148.16,24.16,155.6,18,163.13,12c2.17-1.74,3.37-5.39,2.37-7.73-2.37-5.54-12.71-1.41-14.87.33C123.25,26.54,97,50.65,80.34,82A201.73,201.73,0,0,0,58.11,191.61c1.16,13.09,4.8,25.18,9.56,37.37.39,1,2,.6,1.66-.47Z"/><path class="cls-3" d="M50.54,91.26c-.1-3.41-1.13-7-1.71-10.4-.65-3.81-1.27-7.61-2.1-11.38a163.67,163.67,0,0,0-6-20.72c-2.35-6.52-5-12.94-7.76-19.31C30.06,22.68,26.72,16.1,23.9,9.31,22.28,5.42,29,3.17,30,7.2c.37,1.45.39,2.91.65,4.37.32,1.82-2.22,2.85-3.45,1.69-.85-.81-1.61-1.71-2.4-2.58l4.83-4.23A215.85,215.85,0,0,1,44.92,47.31,205,205,0,0,1,49.36,68.1c.56,3.63,1,7.27,1.28,10.92.35,4.11-.27,8.17,0,12.23,0,0-.05,0-.05,0Z"/><path class="cls-4" d="M59.29,147c-.19-5.73,1.16-11.9,1.78-17.61.7-6.46,1.34-12.89,2.34-19.3a277.81,277.81,0,0,1,7.94-35.38c3.27-11.17,7.11-22.21,11-33.18,4.14-11.65,9.06-23,13.09-34.73C97.75.08,86.23-3,85,3.88c-.46,2.47-.34,4.91-.63,7.39-.35,3.09,4,4.56,6,2.48,1.34-1.45,2.51-3,3.75-4.58L85.5,2.58A362.34,362.34,0,0,0,64.15,72.69,342.85,342.85,0,0,0,58.86,108c-.57,6.14-.88,12.29-1,18.45-.16,6.91,1.31,13.67,1.37,20.5a0,0,0,0,0,.08,0Z"/><path class="cls-5" d="M51.63,180.36c-.52-7.05-.71-14-1.67-21.17a117.07,117.07,0,0,0-5.24-21.52,257.61,257.61,0,0,0-13.24-30,149.9,149.9,0,0,0-14-20.26c-3-3.8,2.56-6.57,5.4-2.38.78,1.13,1.65,2.2,2.38,3.36,1.56,2.45-.64,4.59-3,3C21,90.56,20,89.66,18.88,88.86q1.65-2.34,3.32-4.67c11,12.64,22.79,37.58,26.86,52.25a122.27,122.27,0,0,1,3.79,22.48c.64,7.46.68,14.81-.76,21.58,0,.22-.44.14-.46-.14Z"/><polygon class="cls-6" points="116.17 17.89 109 18.42 114.69 22.82 108.58 19.02 110.6 25.93 107.89 19.26 105.46 26.04 107.19 19.05 101.24 23.11 106.74 18.47 99.55 18.26 106.72 17.73 101.03 13.33 107.14 17.13 105.12 10.22 107.83 16.89 110.25 10.11 108.53 17.09 114.48 13.04 108.98 17.68 116.17 17.89"/><polygon class="cls-5" points="16.63 89.9 9.45 90.42 15.15 94.82 9.03 91.03 11.06 97.93 8.34 91.27 5.92 98.05 7.64 91.06 1.7 95.12 7.19 90.47 0 90.26 7.18 89.74 1.48 85.34 7.6 89.13 5.57 82.23 8.29 88.89 10.71 82.12 8.99 89.1 14.93 85.04 9.44 89.69 16.63 89.9"/><path class="cls-7" d="M47.72,21.37a1.21,1.21,0,1,1-1.2-1.2A1.2,1.2,0,0,1,47.72,21.37Z"/><path class="cls-8" d="M145.26,49.21a2,2,0,1,1-2-2A2,2,0,0,1,145.26,49.21Z"/><path class="cls-9" d="M98.07,30.57a1.2,1.2,0,1,1-1.2-1.2A1.2,1.2,0,0,1,98.07,30.57Z"/><path class="cls-8" d="M133.39,47.62a1.2,1.2,0,1,1-1.2-1.2A1.2,1.2,0,0,1,133.39,47.62Z"/><path class="cls-7" d="M51.63,9.53a2,2,0,1,1-2-1.95A1.95,1.95,0,0,1,51.63,9.53Z"/><path class="cls-9" d="M27.46,49a1.19,1.19,0,0,1,0,1.69,1.2,1.2,0,1,1,0-1.69Z"/><path class="cls-9" d="M15.86,45.65a2,2,0,1,1-2.76.06A1.95,1.95,0,0,1,15.86,45.65Z"/></g></g></svg>